<svg version="1.1" id="Layer_1" xmlns="http://www.w3.org/2000/svg" xmlns:xlink="http://www.w3.org/1999/xlink" x="0px" y="0px"
	 width="100%" viewBox="0 0 192 192" enable-background="new 0 0 192 192" xml:space="preserve">
<path fill="#5A7410" opacity="1.000000" stroke="none" 
	d="
M128.000000,193.000000 
	C85.360802,193.000000 43.221600,193.000000 1.041198,193.000000 
	C1.041198,129.069168 1.041198,65.138313 1.041198,1.103729 
	C64.889008,1.103729 128.778244,1.103729 192.833740,1.103729 
	C192.833740,64.999641 192.833740,128.999786 192.833740,193.000000 
	C171.471939,193.000000 149.985962,193.000000 128.000000,193.000000 
M142.986115,86.500000 
	C142.986069,76.336914 142.970474,66.173798 142.991592,56.010754 
	C143.004898,49.604305 143.882050,43.492920 150.082489,38.739399 
	C139.149246,38.739399 129.111496,38.739399 118.111877,38.739399 
	C124.128105,43.179550 125.110886,48.928219 125.112976,55.017811 
	C125.120361,76.510010 125.064659,98.002304 125.117531,119.494354 
	C125.131516,125.180748 123.075020,129.956253 119.075172,133.796341 
	C109.379021,143.105209 97.817810,145.290573 85.344833,141.172150 
	C73.500526,137.261337 69.464951,127.175758 69.134193,116.019005 
	C68.512451,95.047173 68.828773,74.046494 68.833954,53.057823 
	C68.835304,47.586399 70.345680,42.637444 75.767220,38.764610 
	C64.809639,38.764610 54.789440,38.764610 43.922306,38.764610 
	C50.192043,43.525120 50.888466,49.724720 50.907001,56.112614 
	C50.968887,77.437912 50.703671,98.768211 51.085003,120.087273 
	C51.406719,138.073273 61.524811,150.229492 79.100372,154.065369 
	C95.894531,157.730713 111.401871,155.033768 125.268265,142.093369 
	C125.268265,146.293716 125.268265,149.477417 125.268265,152.624268 
	C133.840805,152.624268 141.727478,152.624268 150.451874,152.624268 
	C143.979126,148.084732 143.009125,141.951187 142.997284,135.482895 
	C142.968018,119.488647 142.986694,103.494301 142.986115,86.500000 
z"/>
<path fill="#FBFBF9" opacity="1.000000" stroke="none" 
	d="
M142.986115,87.000000 
	C142.986694,103.494301 142.968018,119.488647 142.997284,135.482895 
	C143.009125,141.951187 143.979126,148.084732 150.451874,152.624268 
	C141.727478,152.624268 133.840805,152.624268 125.268265,152.624268 
	C125.268265,149.477417 125.268265,146.293716 125.268265,142.093369 
	C111.401871,155.033768 95.894531,157.730713 79.100372,154.065369 
	C61.524811,150.229492 51.406719,138.073273 51.085003,120.087273 
	C50.703671,98.768211 50.968887,77.437912 50.907001,56.112614 
	C50.888466,49.724720 50.192043,43.525120 43.922306,38.764610 
	C54.789440,38.764610 64.809639,38.764610 75.767220,38.764610 
	C70.345680,42.637444 68.835304,47.586399 68.833954,53.057823 
	C68.828773,74.046494 68.512451,95.047173 69.134193,116.019005 
	C69.464951,127.175758 73.500526,137.261337 85.344833,141.172150 
	C97.817810,145.290573 109.379021,143.105209 119.075172,133.796341 
	C123.075020,129.956253 125.131516,125.180748 125.117531,119.494354 
	C125.064659,98.002304 125.120361,76.510010 125.112976,55.017811 
	C125.110886,48.928219 124.128105,43.179550 118.111877,38.739399 
	C129.111496,38.739399 139.149246,38.739399 150.082489,38.739399 
	C143.882050,43.492920 143.004898,49.604305 142.991592,56.010754 
	C142.970474,66.173798 142.986069,76.336914 142.986115,87.000000 
z"/>
</svg>